<?xml version="1.0" standalone="no"?>
<!DOCTYPE svg PUBLIC "-//W3C//DTD SVG 1.1//EN" "http://www.w3.org/Graphics/SVG/1.1/DTD/svg11.dtd" >
<svg xmlns="http://www.w3.org/2000/svg" xmlns:xlink="http://www.w3.org/1999/xlink" version="1.1">
<metadata>
Created by FontForge 20201107 at Tue Jan 04 13:09:14 2022
 By User

</metadata>
<defs>
<font id="uu5-glyphicons" horiz-adv-x="1024" >
  <font-face 
    font-family="uu5-glyphicons"
    font-weight="400"
    font-stretch="normal"
    units-per-em="1024"
    panose-1="0 0 0 0 0 0 0 0 0 0"
    ascent="960"
    descent="-64"
    bbox="0 -64 1024 960"
    underline-thickness="0"
    underline-position="0"
    unicode-range="U+0001-FFFD"
  />
<missing-glyph 
 />
    <glyph glyph-name=".notdef" unicode="&#xfffd;" 
 />
    <glyph glyph-name="glyph1" horiz-adv-x="0" 
d="M0 0v0v0v0z" />
    <glyph glyph-name="glyph1" horiz-adv-x="0" 
d="M0 0v0v0v0z" />
    <glyph glyph-name="uni0001" horiz-adv-x="0" 
d="M0 0v0v0v0z" />
    <glyph glyph-name="space" unicode=" " horiz-adv-x="512" 
d="M0 0v0v0v0z" />
    <glyph glyph-name="uniE900" unicode="&#xe900;" 
d="M510 960q-105 0 -198 -40t-162.5 -109.5t-109.5 -162.5t-40 -198q0 -106 40 -199t109.5 -162.5t162.5 -109.5t198 -40q106 0 199 40t162.5 109.5t109.5 162.5t40 199q0 105 -40 198t-109.5 162.5t-162.5 109.5t-199 40v0v0zM510 23q-88 0 -165.5 33.5t-135.5 91.5
t-91.5 135.5t-33.5 166.5q0 88 33.5 165.5t91.5 135.5t135.5 91.5t165.5 33.5q89 0 166.5 -33.5t135.5 -91.5t91.5 -135.5t33.5 -165.5q0 -89 -33.5 -166.5t-91.5 -135.5t-135.5 -91.5t-166.5 -33.5v0zM572 384l25 334h-180l25 -334h130zM520 298q-46 0 -74.5 -18.5
t-28.5 -48.5q0 -29 28 -48t72 -19h3q46 0 73.5 19t27.5 48q-1 30 -28.5 48.5t-72.5 18.5v0v0z" />
    <glyph glyph-name="uniE901" unicode="&#xe901;" 
d="M845 561q15 14 15 34.5t-15 35.5q-14 14 -34.5 14t-34.5 -14l-267 -268l-267 268q-15 14 -35.5 14t-34.5 -14q-14 -15 -14 -35.5t14 -34.5l302 -302q7 -7 16 -10.5t19 -3.5q9 0 18 3.5t16 10.5l302 302v0z" />
    <glyph glyph-name="uniE902" unicode="&#xe902;" 
d="M631 115q15 -15 35.5 -15t34.5 15q14 14 14 34.5t-14 34.5l-267 267l267 267q14 15 14 35.5t-14 34.5t-34.5 14t-35.5 -14l-302 -302q-7 -7 -10.5 -16t-3.5 -19q0 -9 3.5 -18t10.5 -16l302 -302v0z" />
    <glyph glyph-name="uniE903" unicode="&#xe903;" 
d="M399 788q-14 14 -34.5 14t-35.5 -14q-14 -14 -14 -34.5t14 -35.5l268 -267l-268 -267q-14 -14 -14 -34.5t14 -34.5q15 -15 35.5 -15t34.5 15l302 302q7 7 10.5 16t3.5 18q0 10 -3.5 19t-10.5 16l-302 302v0z" />
    <glyph glyph-name="uniE904" unicode="&#xe904;" 
d="M172 329q-14 -15 -14 -35.5t14 -34.5t34.5 -14t35.5 14l267 267l267 -267q14 -14 34.5 -14t34.5 14q15 14 15 34.5t-15 35.5l-302 302q-7 7 -16 10.5t-18 3.5q-10 0 -19 -3.5t-16 -10.5l-302 -302v0z" />
    <glyph glyph-name="uniE905" unicode="&#xe905;" 
d="M388 403q0 8 -6 14t-15 6h-72q-9 0 -15 -6t-6 -14v-71q0 -9 6 -15t15 -6h72q9 0 15 6t6 15v71v0zM569 403q0 8 -6 14t-15 6h-72q-9 0 -15 -6t-6 -14v-71q0 -9 6 -15t15 -6h72q9 0 15 6t6 15v71zM750 403q0 8 -6 14t-14 6h-73q-9 0 -15 -6t-6 -14v-71q0 -9 6 -15t15 -6h73
q8 0 14 6t6 15v71zM388 225q0 9 -6 15t-15 6h-72q-9 0 -15 -6t-6 -15v-70q0 -9 6 -15t15 -6h72q9 0 15 6t6 15v70v0zM569 225q0 9 -6 15t-15 6h-72q-9 0 -15 -6t-6 -15v-70q0 -9 6 -15t15 -6h72q9 0 15 6t6 15v70zM750 225q0 9 -6 15t-14 6h-73q-9 0 -15 -6t-6 -15v-70
q0 -9 6 -15t15 -6h73q8 0 14 6t6 15v70zM880 796v-108q0 -36 -26.5 -62t-64.5 -26h-57q-37 0 -64 26t-27 62v109h-258v-109q0 -36 -26.5 -62t-64.5 -26h-57q-37 0 -64 26t-27 62v108q-32 -1 -55.5 -24t-23.5 -56v-634q0 -33 24 -56.5t58 -23.5h730q34 0 58.5 23.5t24.5 56.5
v634q0 33 -23.5 56t-56.5 24v0v0v0v0zM853 122q0 -15 -10 -25t-25 -10h-613q-15 0 -25.5 10t-10.5 25v327q0 15 10.5 25t25.5 10h613q15 0 25 -10t10 -25v-327zM235 658h56q13 0 22 9t9 21v178q0 12 -9 21t-22 9h-56q-13 0 -22 -9t-9 -21v-178q0 -12 9 -21t22 -9v0zM731 658
h57q13 0 22 9t9 21v178q0 12 -9 21t-22 9h-57q-12 0 -21.5 -9t-9.5 -21v-178q0 -12 9.5 -21t21.5 -9v0z" />
    <glyph glyph-name="uniE906" unicode="&#xe906;" 
d="M512 896q-93 0 -174.5 -35.5t-142 -96t-96 -142t-35.5 -174.5t35.5 -174.5t96 -142t142 -96t174.5 -35.5t174.5 35.5t142 96t96 142t35.5 174.5t-35.5 174.5t-96 142t-142 96t-174.5 35.5v0zM512 94q-73 0 -137.5 28t-112.5 76t-76 112.5t-28 137.5t28 137.5t76 112.5
t112.5 76t137.5 28t137.5 -28t112.5 -76t76 -112.5t28 -137.5t-28 -137.5t-76 -112.5t-112.5 -76t-137.5 -28v0v0zM752 462h-174q-5 8 -11.5 14.5t-14.5 10.5v211q0 16 -11.5 28t-28.5 12t-28.5 -12t-11.5 -28v-211q-17 -10 -27 -27t-10 -38q0 -32 22.5 -54.5t54.5 -22.5
q21 0 38 10t28 27h174q17 0 29 11.5t12 28.5q0 16 -12 28t-29 12v0v0z" />
    <glyph glyph-name="uniE907" unicode="&#xe907;" 
d="M857 954q-6 6 -14.5 6t-14.5 -6l-303 -303q-6 -6 -15 -6t-15 6l-303 303q-6 6 -15 6t-15 -6l-156 -156q-6 -6 -6 -15t6 -15l303 -303q6 -6 6 -15t-6 -15l-303 -303q-6 -6 -6 -14.5t6 -14.5l156 -156q6 -7 15 -7t15 7l303 303q6 6 15 6t15 -6l303 -303q6 -7 14.5 -7
t14.5 7l156 156q7 6 7 14.5t-7 14.5l-303 303q-6 6 -6 15t6 15l303 303q7 6 7 15t-7 15z" />
    <glyph glyph-name="uniE908" unicode="&#xe908;" 
d="M510 960q-105 0 -198 -40t-162.5 -109.5t-109.5 -162.5t-40 -198q0 -106 40 -199t109.5 -162.5t162.5 -109.5t198 -40q106 0 199 40t162.5 109.5t109.5 162.5t40 199q0 105 -40 198t-109.5 162.5t-162.5 109.5t-199 40v0v0zM510 23q-88 0 -165.5 33.5t-135.5 91.5
t-91.5 135.5t-33.5 166.5q0 88 33.5 165.5t91.5 135.5t135.5 91.5t165.5 33.5q89 0 166.5 -33.5t135.5 -91.5t91.5 -135.5t33.5 -165.5q0 -89 -33.5 -166.5t-91.5 -135.5t-135.5 -91.5t-166.5 -33.5v0zM699 589q10 9 10 23t-10 23q-9 10 -23 10t-24 -10l-140 -139l-140 139
q-10 10 -24 10t-23 -10q-10 -9 -10 -23t10 -23l140 -140l-140 -140q-10 -9 -10 -23t10 -23q9 -10 23 -10t24 10l140 139l140 -139q10 -10 24 -10t23 10q10 9 10 23t-10 23l-140 140l140 140v0z" />
    <glyph glyph-name="uniE909" unicode="&#xe909;" 
d="M684 843q-59 58 -133 87.5t-150.5 29.5t-150.5 -29.5t-133 -87.5q-58 -59 -87.5 -133t-29.5 -150.5t29.5 -150.5t87.5 -133q52 -52 116.5 -81t133 -34.5t136.5 12t126 58.5q3 -12 8.5 -23t14.5 -20l227 -227q25 -25 60 -25t60 25t25 60t-25 59l-227 228q-9 9 -20 14.5
t-23 8.5q41 58 58.5 126t12 136.5t-34.5 133t-81 116.5v0v0v0zM612 348q-44 -44 -99 -66t-112.5 -22t-112.5 22t-99 66t-65.5 99t-21.5 112.5t21.5 112.5t65.5 99t99 65.5t112.5 21.5t112.5 -21.5t99 -65.5t65.5 -99t21.5 -112.5t-21.5 -112.5t-65.5 -99v0v0z" />
    <glyph glyph-name="uniE90A" unicode="&#xe90a;" 
d="M192 864v-457v0v0v-355q0 -19 -13 -32t-32 -13q-18 0 -31.5 13t-13.5 32v812q0 19 13.5 32t31.5 13q19 0 32 -13t13 -32zM450 390v0q38 56 99.5 90t134.5 34q57 0 108 -21.5t89 -58.5q3 -2 6.5 -3t6.5 -3q8 -3 15 -2.5t10 6.5q4 5 3 13.5t-6 16.5q-32 58 -64 108t-64 93
q-6 8 -6 17.5t6 16.5q32 38 64 69.5t63 56.5q27 22 7 36.5t-28 18.5q-81 34 -162 23.5t-162 -32t-162 -38t-162 4.5v-449q51 -14 102 -11t102 14v0zM684 -13v0q-51 0 -95.5 19.5t-77.5 52.5t-52.5 77.5t-19.5 95.5q0 50 19.5 94.5t52.5 78t77.5 52.5t95.5 19q50 0 94.5 -19
t78 -52.5t52.5 -78t19 -94.5q0 -51 -19 -95.5t-52.5 -77.5t-78 -52.5t-94.5 -19.5zM684 25q43 0 80.5 16t65.5 44t44.5 66t16.5 81t-16.5 80.5t-44.5 65.5t-65.5 44.5t-80.5 16.5t-81 -16.5t-66 -44.5t-44 -65.5t-16 -80.5t16 -81t44 -66t66 -44t81 -16v0zM658 352v0
q8 11 25.5 11t26.5 -11l62 -85q5 -7 5.5 -15t-3.5 -14q-4 -7 -11.5 -11t-16.5 -4h-31v-57q0 -12 -9 -20t-22 -8t-22.5 8t-9.5 20v57h-31q-9 0 -16.5 4t-11.5 11q-4 6 -3.5 14t5.5 15l63 85v0z" />
    <glyph glyph-name="uniE90B" unicode="&#xe90b;" 
d="M1024 888v0q0 -30 -21 -50.5t-51 -20.5h-880q-30 0 -51 20.5t-21 50.5v0q0 30 21 51t51 21h881q29 0 50 -21t21 -51zM1024 530v-1q0 -30 -21 -50.5t-51 -20.5h-880q-30 0 -51 20.5t-21 50.5v1q0 29 21 50t51 21h881q29 0 50 -21t21 -50v0zM1024 171v-1q0 -29 -21 -50
t-51 -21h-880q-30 0 -51 21t-21 50v1q0 29 21 50t51 21h881q29 0 50 -21t21 -50z" />
    <glyph glyph-name="uniE90C" unicode="&#xe90c;" 
d="M923 435q0 21 -15.5 36.5t-37.5 15.5h-738q-22 0 -37.5 -15.5t-15.5 -36.5q0 -22 15.5 -37.5t37.5 -15.5h738q22 0 37.5 15.5t15.5 37.5z" />
    <glyph glyph-name="uniE90D" unicode="&#xe90d;" 
d="M868 858l-512 -512l-200 199l-156 -157l356 -355l668 668z" />
    <glyph glyph-name="uniE90E" unicode="&#xe90e;" 
d="M512 960q-106 0 -199 -40.5t-162.5 -110t-110 -162.5t-40.5 -199t40.5 -199t110 -162.5t162.5 -110t199 -40.5t199 40.5t162.5 110t110 162.5t40.5 199t-40.5 199t-110 162.5t-162.5 110t-199 40.5v0v0zM512 20q-89 0 -166.5 33.5t-136 92t-92 136t-33.5 166.5
t33.5 166.5t92 136t136 92t166.5 33.5t166.5 -33.5t136 -92t92 -136t33.5 -166.5t-33.5 -166.5t-92 -136t-136 -92t-166.5 -33.5v0zM716 632l-304 -310l-139 142q-12 12 -29.5 12t-29.5 -12q-13 -13 -13 -30.5t13 -30.5l168 -172q6 -7 14 -10t16 -3t16 3t14 10l333 341
q13 12 13 30t-13 30q-12 13 -29.5 13t-29.5 -13v0v0z" />
    <glyph glyph-name="uniE90F" unicode="&#xe90f;" 
d="M512 416q-51 0 -86 24.5t-58 62.5t-35.5 85t-17.5 91q-5 55 4 102t33.5 81.5t64.5 54t95 19.5t95 -19.5t64.5 -54t33.5 -81.5t4 -102q-5 -44 -17.5 -91t-35.5 -85t-58 -62.5t-86 -24.5v0zM878 72q1 -27 -11 -35t-33 -16q-26 -10 -53 -18t-54 -14q-53 -12 -107 -20
t-108 -9q-54 1 -108 9t-107 20q-27 6 -54 14t-53 18q-21 8 -33 16t-11 35q1 35 5 69.5t9 68.5q7 41 19.5 92.5t46.5 78.5q20 16 43.5 23.5t45.5 16.5q11 5 21 9.5t19 9.5q31 -36 70.5 -54.5t86.5 -18.5t86.5 18.5t70.5 54.5q9 -5 19 -9.5t21 -9.5q22 -9 45.5 -16.5
t43.5 -23.5q34 -27 46.5 -78.5t19.5 -92.5q5 -34 9 -68.5t5 -69.5v0z" />
    <glyph glyph-name="uniE910" unicode="&#xe910;" 
d="M829 832h-634q-38 0 -65.5 -28t-27.5 -68v-602q0 -40 27.5 -68t65.5 -28h634q38 0 65.5 28t27.5 68v602q0 40 -27.5 68t-65.5 28v0v0v0v0v0zM632 690q37 0 63.5 -27.5t26.5 -65.5t-26.5 -65t-63.5 -27t-63 27t-26 65t26 65.5t63 27.5v0v0v0v0zM800 127h-563q-19 0 -26 12
t1 29l154 315q8 17 22 18t25 -14l155 -208q11 -16 28 -17t30 13l38 39q13 14 30 12.5t27 -17.5l98 -144q11 -16 5 -27t-24 -11v0v0v0v0v0z" />
    <glyph glyph-name="uniE911" unicode="&#xe911;" 
d="M870 383q22 0 37.5 15.5t15.5 37.5t-15.5 37.5t-37.5 15.5h-317v317q0 22 -15.5 37.5t-37.5 15.5t-37.5 -15.5t-15.5 -37.5v-317h-318q-22 0 -37.5 -15.5t-15.5 -37.5t15.5 -37.5t37.5 -15.5h318v-318q0 -22 15.5 -37.5t37.5 -15.5t37.5 15.5t15.5 37.5v318h317v0z" />
    <glyph glyph-name="uniE912" unicode="&#xe912;" 
d="M512 960q106 0 199.5 -40t163 -109.5t109.5 -163t40 -199.5t-40 -199.5t-109.5 -163t-163 -109.5t-199.5 -40t-199.5 40t-163 109.5t-109.5 163t-40 199.5t40 199.5t109.5 163t163 109.5t199.5 40z" />
    <glyph glyph-name="uniE913" unicode="&#xe913;" 
d="M882 387q-4 7 -2.5 15t7.5 12q36 29 31.5 98t-72.5 69h-238q-35 0 -52.5 30.5t-0.5 61.5q21 38 37 80t31 89q15 51 -9.5 84.5t-61.5 33.5q-19 0 -39 -11.5t-36 -36.5q-23 -36 -43 -74t-39.5 -73t-39.5 -66t-43 -53q-18 -18 -53 -42.5t-69.5 -47t-60.5 -39.5t-26 -19v-391
q0 -8 5.5 -14.5t13.5 -7.5l140 -22q2 0 4.5 -1t4.5 -2q47 -31 91.5 -54t86.5 -38.5t80.5 -22.5t72.5 -7q19 0 36.5 2t33.5 6q82 21 98.5 62t12.5 68q-1 8 4 15t13 9q43 12 49.5 58.5t-7.5 75.5q-4 8 -1 16.5t11 12.5q33 18 37.5 59t-7.5 65v0v0z" />
    <glyph glyph-name="uniE914" unicode="&#xe914;" 
d="M638 803l-35 9q-3 2 -6.5 1.5t-6.5 -2.5t-5.5 -4.5t-3.5 -5.5l-208 -686q-1 -4 -1 -7t2 -6t5 -5t6 -3l35 -9q3 -2 6.5 -1.5t6.5 2.5t5 4.5t4 5.5l208 686q1 4 1 7t-2 6t-5 5t-6 3v0zM325 670q0 3 -1 6t-4 6l-28 26q-3 3 -6 4.5t-7 1.5t-7 -1.5t-6 -4.5l-260 -247
q-3 -3 -4.5 -6t-1.5 -7q0 -3 1.5 -6t4.5 -6l260 -247q3 -3 6 -4.5t7 -1.5t7 1.5t6 4.5l28 26q3 3 4 6t1 6q0 4 -1 7t-4 6l-220 208l220 209q3 3 4 6t1 7v0zM1017 461l-260 247q-3 3 -6 4.5t-7 1.5t-7 -1.5t-6 -4.5l-28 -26q-3 -3 -4 -6t-1 -6q0 -4 1 -7t4 -6l220 -208
l-220 -209q-3 -3 -4 -6t-1 -7q0 -3 1 -6t4 -6l28 -26q3 -3 6 -4.5t7 -1.5t7 1.5t6 4.5l260 247q3 3 4.5 6t1.5 7q0 3 -1.5 6t-4.5 6v0z" />
    <glyph glyph-name="uniE915" unicode="&#xe915;" 
d="M938 50h-852q-13 0 -22.5 -9t-9.5 -22q0 -12 9.5 -21t22.5 -9h853q13 0 22.5 9t9.5 21q0 13 -10 22t-23 9v0v0zM54 322l-1 -146q0 -6 2.5 -12t7.5 -10q4 -5 10 -7t12 -2h151q7 0 12.5 2.5t10.5 6.5l522 503q9 9 9 22t-9 22l-150 146q-9 9 -22.5 9t-23.5 -9l-104 -102
l-417 -401q-5 -4 -7.5 -9.5t-2.5 -12.5v0v0zM609 781l105 -102l-60 -57l-105 102zM119 309l384 370l106 -101l-385 -370h-106l1 101v0z" />
    <glyph glyph-name="uniE916" unicode="&#xe916;" 
d="M436.949 789.333h186.475q7.99063 0 13.6403 -5.6501q5.6497 -5.6501 5.6497 -13.6409v-51.4404q0 -7.99082 -5.6497 -13.6409q-5.6497 -5.6501 -13.6403 -5.6501h-115.741v-45.0107h33.7578q51.2706 0 87.5254 -36.255q36.2548 -36.255 36.2548 -87.5272
q0 -51.2703 -36.255 -87.5253t-87.5253 -36.255h-84.4424q-36.3325 0 -61.1826 26.5l-4.39844 4.68945q-10.9321 11.6573 -10.4198 27.6295t12.1688 26.9066l9.37988 8.79785q11.6568 10.931 27.6295 10.4183q15.9727 -0.512698 26.9037 -12.1674l2.58203 -2.75195h81.7793
q13.9829 0 23.8704 9.88805q9.88746 9.88805 9.88746 23.8698q0 13.9841 -9.88722 23.872q-9.88722 9.88781 -23.8706 9.88781h-85.2012q-15.9808 0 -27.2814 11.3002q-11.3006 11.3002 -11.3006 27.2808v167.184q0 7.99063 5.65059 13.6408t13.6414 5.65019z
M788.663 527.245q18.0869 -4.52208 27.6799 -20.5105t5.07112 -34.0774q-23.5963 -94.3867 -100.284 -154.261t-173.981 -59.8745h-78.9414q-97.2922 0 -173.979 59.8744q-76.6867 59.8744 -100.284 154.261q-4.52196 18.0893 5.07054 34.0776
q9.5925 15.9883 27.6804 20.5103q18.0869 4.52119 34.074 -5.07158t20.509 -27.6794q16.0831 -64.3325 68.3504 -105.141q52.2673 -40.8088 118.578 -40.8088h78.9414q66.3113 0 118.58 40.809t68.3517 105.141q4.52135 18.0869 20.5077 27.6795t34.0753 5.07149z
M121.427 351.151q15.1712 10.835 33.5618 7.76965t29.2273 -18.2365q46.6263 -65.2769 117.955 -101.985t151.547 -36.7078h107.921q80.2196 0 151.548 36.7076q71.3281 36.7076 117.956 101.985q10.8344 15.171 29.2257 18.2365t33.5624 -7.76965
q15.1712 -10.8382 18.2363 -29.23t-7.77051 -33.563q-59.3031 -83.0193 -150.019 -129.704q-90.7155 -46.6847 -192.739 -46.6847h-107.921q-102.022 0 -192.739 46.685q-90.7165 46.685 -150.017 129.704q-10.8369 15.1714 -7.77173 33.563t18.2366 29.23z" />
  </font>
</defs>
</svg>
